<svg xmlns="http://www.w3.org/2000/svg" viewBox="0 0 1280 720" width="1280" height="720">
  <g id="background"><rect width="1280" height="720" fill="#FFFFFF"/></g>
  <g id="header"><text x="56" y="70" font-family="Cambria, SimSun, serif" font-size="34" font-weight="700" fill="#1A365D">端到端闭环已经形成，下一阶段聚焦更多粒度与图数据库协同</text><text x="56" y="102" font-family="Microsoft YaHei, Arial, sans-serif" font-size="14" fill="#5F6F7F">当前成果证明治理架构可运行；路线图扩展覆盖面与探索能力</text></g>
  <g id="implemented">
    <rect x="56" y="142" width="800" height="492" rx="8" fill="#F4F7FA"/>
    <rect x="56" y="142" width="800" height="64" fill="#1A365D"/><text x="86" y="184" font-family="Microsoft YaHei, Arial, sans-serif" font-size="24" font-weight="700" fill="#FFFFFF">已实现 · End-to-End Closed Loop</text>
    <text x="88" y="258" font-family="Microsoft YaHei, Arial, sans-serif" font-size="18" font-weight="700" fill="#3182CE">提取与增强</text><text x="262" y="258" font-family="Microsoft YaHei, Arial, sans-serif" font-size="18" fill="#243447">7 类提取 · Tier 1 / Tier 2 · 12 条规则</text>
    <line x1="88" y1="288" x2="824" y2="288" stroke="#CBD5DF"/>
    <text x="88" y="336" font-family="Microsoft YaHei, Arial, sans-serif" font-size="18" font-weight="700" fill="#3182CE">治理与审核</text><text x="262" y="336" font-family="Microsoft YaHei, Arial, sans-serif" font-size="18" fill="#243447">双模型盲审 · 交叉验证 · 专家终审</text>
    <line x1="88" y1="366" x2="824" y2="366" stroke="#CBD5DF"/>
    <text x="88" y="414" font-family="Microsoft YaHei, Arial, sans-serif" font-size="18" font-weight="700" fill="#3182CE">正式知识</text><text x="262" y="414" font-family="Microsoft YaHei, Arial, sans-serif" font-size="18" fill="#243447">Promotion · Final KG · 三元组整合</text>
    <line x1="88" y1="444" x2="824" y2="444" stroke="#CBD5DF"/>
    <text x="88" y="492" font-family="Microsoft YaHei, Arial, sans-serif" font-size="18" font-weight="700" fill="#3182CE">工作台</text><text x="262" y="492" font-family="Microsoft YaHei, Arial, sans-serif" font-size="18" fill="#243447">14 页前端 · 42 路由 · 88 服务</text>
    <line x1="88" y1="522" x2="824" y2="522" stroke="#CBD5DF"/>
    <text x="88" y="570" font-family="Microsoft YaHei, Arial, sans-serif" font-size="18" font-weight="700" fill="#38A169">质量保障</text><text x="262" y="570" font-family="Microsoft YaHei, Arial, sans-serif" font-size="18" fill="#243447">1,173 测试函数 · 59 数据迁移</text>
  </g>
  <g id="roadmap">
    <rect x="886" y="142" width="338" height="492" rx="8" fill="#1A365D"/>
    <text x="916" y="184" font-family="Microsoft YaHei, Arial, sans-serif" font-size="24" font-weight="700" fill="#FFFFFF">下一步</text>
    <circle cx="922" cy="248" r="10" fill="#3182CE"/><text x="950" y="255" font-family="Microsoft YaHei, Arial, sans-serif" font-size="18" fill="#FFFFFF">更多粒度资源接入</text>
    <line x1="922" y1="258" x2="922" y2="332" stroke="#CBD5DF"/>
    <circle cx="922" cy="344" r="10" fill="#3182CE"/><text x="950" y="351" font-family="Microsoft YaHei, Arial, sans-serif" font-size="18" fill="#FFFFFF">图数据库同步</text>
    <line x1="922" y1="354" x2="922" y2="428" stroke="#CBD5DF"/>
    <circle cx="922" cy="440" r="10" fill="#DD6B20"/><text x="950" y="447" font-family="Microsoft YaHei, Arial, sans-serif" font-size="18" fill="#FFFFFF">跨粒度映射自动化</text>
    <line x1="922" y1="450" x2="922" y2="524" stroke="#CBD5DF"/>
    <circle cx="922" cy="536" r="10" fill="#38A169"/><text x="950" y="543" font-family="Microsoft YaHei, Arial, sans-serif" font-size="18" fill="#FFFFFF">Graph Explorer 增强</text>
    <text x="916" y="596" font-family="Microsoft YaHei, Arial, sans-serif" font-size="14" fill="#CBD5DF">扩展能力，不放松治理边界。</text>
  </g>
  <g id="footer"><text x="56" y="690" font-family="Microsoft YaHei, Arial, sans-serif" font-size="11" fill="#8492A0">Source: implementation inventory and roadmap</text><text x="1224" y="690" text-anchor="end" font-family="Arial, sans-serif" font-size="11" fill="#8492A0">14</text></g>
</svg>
