<svg xmlns="http://www.w3.org/2000/svg" viewBox="0 0 1280 720" data-pptx-page-role="content"><defs><filter id="g"><feGaussianBlur stdDeviation="2" result="b"/><feMerge><feMergeNode in="b"/><feMergeNode in="SourceGraphic"/></feMerge></filter></defs><g id="bg" data-pptx-bounds="0 0 1280 720" data-pptx-role="background"><rect width="1280" height="720" fill="#0D1117"/><line x1="0" y1="108" x2="1280" y2="108" stroke="#212D40" stroke-width="0.5"/><text x="80" y="700" font-family="Microsoft YaHei" font-size="14" fill="#586069">NeuroGraphIQ KG V3</text></g><g id="c" data-pptx-bounds="40 120 1200 560">
<rect x="40" y="120" width="4" height="48" fill="#58A6FF" /><text x="60" y="155" font-family="Microsoft YaHei" font-weight="bold" font-size="40" fill="#FFFFFF">知识消费与全链路溯源</text>
<text x="40" y="185" font-family="Microsoft YaHei" font-size="18" fill="#8B949E">知识消费面</text>
<rect x="40" y="200" width="270" height="120" rx="2" fill="#161B22" stroke="#30363D" stroke-width="0.5"/>
<rect x="40" y="200" width="270" height="4" fill="#58A6FF"/>
<text x="60" y="240" font-family="Microsoft YaHei" font-weight="bold" font-size="22" fill="#58A6FF">图谱探索</text>
<text x="60" y="275" font-family="Microsoft YaHei" font-size="17" fill="#C9D1D9">D3 力导向图可视化</text>
<text x="60" y="303" font-family="Microsoft YaHei" font-size="17" fill="#C9D1D9">节点展开/收起</text>
<text x="60" y="331" font-family="Microsoft YaHei" font-size="17" fill="#C9D1D9">按类型着色</text>
<rect x="330" y="200" width="270" height="120" rx="2" fill="#161B22" stroke="#30363D" stroke-width="0.5"/>
<rect x="330" y="200" width="270" height="4" fill="#79C0FF"/>
<text x="350" y="240" font-family="Microsoft YaHei" font-weight="bold" font-size="22" fill="#79C0FF">症状查询</text>
<text x="350" y="275" font-family="Microsoft YaHei" font-size="17" fill="#C9D1D9">自然语言症状输入</text>
<text x="350" y="303" font-family="Microsoft YaHei" font-size="17" fill="#C9D1D9">标准化功能/回路匹配</text>
<text x="350" y="331" font-family="Microsoft YaHei" font-size="17" fill="#C9D1D9">→ 图谱结果+临床报告</text>
<rect x="620" y="200" width="270" height="120" rx="2" fill="#161B22" stroke="#30363D" stroke-width="0.5"/>
<rect x="620" y="200" width="270" height="4" fill="#58A6FF"/>
<text x="640" y="240" font-family="Microsoft YaHei" font-weight="bold" font-size="22" fill="#58A6FF">数据中心</text>
<text x="640" y="275" font-family="Microsoft YaHei" font-size="17" fill="#C9D1D9">Raw→Candidate→Mirror</text>
<text x="640" y="303" font-family="Microsoft YaHei" font-size="17" fill="#C9D1D9">→Final 四面板浏览</text>
<text x="640" y="331" font-family="Microsoft YaHei" font-size="17" fill="#C9D1D9">字段补全 + 批量操作</text>
<rect x="910" y="200" width="270" height="120" rx="2" fill="#161B22" stroke="#30363D" stroke-width="0.5"/>
<rect x="910" y="200" width="270" height="4" fill="#79C0FF"/>
<text x="930" y="240" font-family="Microsoft YaHei" font-weight="bold" font-size="22" fill="#79C0FF">知识导出</text>
<text x="930" y="275" font-family="Microsoft YaHei" font-size="17" fill="#C9D1D9">JSONL + CSV</text>
<text x="930" y="303" font-family="Microsoft YaHei" font-size="17" fill="#C9D1D9">+ Neo4j 兼容格式</text>
<text x="930" y="331" font-family="Microsoft YaHei" font-size="17" fill="#C9D1D9">离线确定性导出</text>
<!-- Provenance chain -->
<text x="40" y="365" font-family="Microsoft YaHei" font-size="18" fill="#8B949E">全链路溯源 — 任何 Final KG 事实 → 7 步回溯 → 原始出处</text>
<g transform="translate(40, 385)">
<rect x="0" y="0" width="130" height="36" rx="2" fill="#1A365D"/><text x="65" y="23" text-anchor="middle" font-family="Microsoft YaHei" font-size="13" fill="#FFFFFF">Final KG 事实</text>
<text x="140" y="24" font-family="Consolas" font-size="18" fill="#30363D">→</text>
<rect x="160" y="0" width="120" height="36" rx="2" fill="#1C3A6E"/><text x="220" y="23" text-anchor="middle" font-family="Microsoft YaHei" font-size="13" fill="#79C0FF">promotion</text>
<text x="290" y="24" font-family="Consolas" font-size="18" fill="#30363D">→</text>
<rect x="310" y="0" width="120" height="36" rx="2" fill="#204A90"/><text x="370" y="23" text-anchor="middle" font-family="Microsoft YaHei" font-size="13" fill="#FFA657">review</text>
<text x="440" y="24" font-family="Consolas" font-size="18" fill="#30363D">→</text>
<rect x="460" y="0" width="130" height="36" rx="2" fill="#2858A0"/><text x="525" y="23" text-anchor="middle" font-family="Microsoft YaHei" font-size="13" fill="#C9D1D9">rule_validation</text>
<text x="600" y="24" font-family="Consolas" font-size="18" fill="#30363D">→</text>
<rect x="620" y="0" width="140" height="36" rx="2" fill="#3068B0"/><text x="690" y="23" text-anchor="middle" font-family="Microsoft YaHei" font-size="12" fill="#58A6FF">llm_item(raw)</text>
<text x="770" y="24" font-family="Consolas" font-size="18" fill="#30363D">→</text>
<rect x="790" y="0" width="130" height="36" rx="2" fill="#3878C0"/><text x="855" y="23" text-anchor="middle" font-family="Microsoft YaHei" font-size="13" fill="#79C0FF">llm_run</text>
<text x="930" y="24" font-family="Consolas" font-size="18" fill="#30363D">→</text>
<rect x="950" y="0" width="120" height="36" rx="2" fill="#1A365D"/><text x="1010" y="23" text-anchor="middle" font-family="Microsoft YaHei" font-size="13" fill="#FFFFFF">candidate_pool</text>
<text x="1080" y="24" font-family="Consolas" font-size="18" fill="#30363D">→</text>
<rect x="1100" y="0" width="100" height="36" rx="2" fill="#1C3A6E"/><text x="1150" y="23" text-anchor="middle" font-family="Microsoft YaHei" font-size="12" fill="#79C0FF">import_batch</text>
</g>
<text x="640" y="450" text-anchor="middle" font-family="Microsoft YaHei" font-size="14" fill="#586069">import_batch → resource (原始脑图谱资源) — 全链路不可篡改，provenance 是晋升的硬性前提</text>
<g><text x="640" y="500" text-anchor="middle" font-family="Microsoft YaHei" font-weight="bold" font-size="20" fill="#58A6FF">任何 Final KG 事实 → 7 步回溯 → 原始脑图谱资源出处</text></g>
</g></svg>